<svg xmlns="http://www.w3.org/2000/svg" viewBox="0 0 32 32"><title>90-ISO</title><g id="_90-ISO" data-name="90-ISO"><path d="M29,0H3A3,3,0,0,0,0,3V29a3,3,0,0,0,3,3H29a3,3,0,0,0,3-3V3A3,3,0,0,0,29,0Zm1,29a1,1,0,0,1-1,1H3a1,1,0,0,1-1-1V3A1,1,0,0,1,3,2H29a1,1,0,0,1,1,1Z"/><rect x="4" y="4" width="2" height="2"/><rect x="26" y="4" width="2" height="2"/><rect x="26" y="26" width="2" height="2"/><rect x="4" y="26" width="2" height="2"/><path d="M14,13h2a1,1,0,0,1,1,1h2a3,3,0,0,0-3-3H14a3,3,0,0,0,0,6h2a1,1,0,0,1,0,2H14a1,1,0,0,1-1-1H11a3,3,0,0,0,3,3h2a3,3,0,0,0,0-6H14a1,1,0,0,1,0-2Z"/><polygon points="4 13 6 13 6 19 4 19 4 21 10 21 10 19 8 19 8 13 10 13 10 11 4 11 4 13"/><path d="M24,11a4,4,0,0,0-4,4v2a4,4,0,0,0,8,0V15A4,4,0,0,0,24,11Zm2,6a2,2,0,0,1-4,0V15a2,2,0,0,1,4,0Z"/></g></svg>